<?xml version="1.0" encoding="UTF-8" standalone="no"?>
<!-- Created with Inkscape (http://www.inkscape.org/) -->

<svg
   width="41.73996mm"
   height="31.115883mm"
   viewBox="0 0 41.73996 31.115883"
   version="1.1"
   id="svg1"
   xml:space="preserve"
   inkscape:version="1.3 (0e150ed6c4, 2023-07-21)"
   sodipodi:docname="CREED_LOGO.svg"
   xmlns:inkscape="http://www.inkscape.org/namespaces/inkscape"
   xmlns:sodipodi="http://sodipodi.sourceforge.net/DTD/sodipodi-0.dtd"
   xmlns="http://www.w3.org/2000/svg"
   xmlns:svg="http://www.w3.org/2000/svg"><sodipodi:namedview
     id="namedview1"
     pagecolor="#ffffff"
     bordercolor="#000000"
     borderopacity="0.25"
     inkscape:showpageshadow="2"
     inkscape:pageopacity="0.0"
     inkscape:pagecheckerboard="0"
     inkscape:deskcolor="#d1d1d1"
     inkscape:document-units="mm"
     inkscape:zoom="0.16"
     inkscape:cx="962.5"
     inkscape:cy="-68.75"
     inkscape:window-width="1600"
     inkscape:window-height="930"
     inkscape:window-x="-6"
     inkscape:window-y="-6"
     inkscape:window-maximized="1"
     inkscape:current-layer="layer1"
     showgrid="false"
     showguides="false" /><defs
     id="defs1" /><g
     inkscape:label="Layer 1"
     inkscape:groupmode="layer"
     id="layer1"
     transform="translate(-1107.43,-187.19842)"><rect
       style="fill:#ffffff;stroke-width:0.171;stroke-linecap:square;stroke-linejoin:round;stroke-miterlimit:4.1"
       id="rect16"
       width="278.17603"
       height="242.20142"
       x="972.57037"
       y="16.732393"
       sodipodi:insensitive="true" /><path
       id="path77"
       style="fill:#1a72ce;fill-opacity:1;stroke:none;stroke-width:0.460355;stroke-linecap:square;stroke-linejoin:round;stroke-miterlimit:4.1;stroke-dasharray:none"
       d="m 1376.727,163.52001 c -8.5926,-8e-5 -15.5582,6.96559 -15.5581,15.55815 1e-4,8.5924 6.9657,15.55782 15.5581,15.55774 2.3962,-0.0183 4.7558,-0.58996 6.8948,-1.67027 -0.023,-0.62643 -0.046,-1.23426 -0.073,-1.94731 -1.7,0.79583 -3.5536,1.20979 -5.4307,1.2128 -7.1012,-7e-5 -12.3786,-5.77299 -12.8576,-12.85799 -0.4912,-7.26477 5.6923,-12.87892 12.8576,-12.85757 2.1766,0.01 4.3151,0.57151 6.2152,1.63319 -0.1346,-0.97104 0,-1.83152 0.732,-2.19938 -2.4925,-1.5849 -5.3847,-2.42753 -8.3384,-2.42936 z"
       sodipodi:nodetypes="csccccsccccc"
       inkscape:export-filename="CREED_LOGO_1.svg"
       inkscape:export-xdpi="96"
       inkscape:export-ydpi="96" /><path
       id="path78"
       style="fill:#4bdf52;fill-opacity:1;stroke:none;stroke-width:0.460455;stroke-linecap:square;stroke-linejoin:round;stroke-miterlimit:4.1;stroke-dasharray:none"
       d="M 1376.6813 163.51976 A 15.557948 15.557948 0 0 0 1361.9509 174.16511 A 11.382256 11.382256 0 0 0 1365.5228 176.83936 C 1366.5855 175.38302 1368.0778 174.01667 1370.278 172.76984 C 1369.1056 172.32607 1367.9333 172.4589 1366.7609 173.12796 C 1370.2073 168.2964 1375.0129 167.35853 1378.2021 167.33813 C 1378.9381 167.3334 1379.588 167.37785 1380.1152 167.43425 C 1377.682 167.62329 1373.4158 168.24841 1371.6196 171.07072 C 1372.5789 171.05637 1373.92 171.45951 1374.9284 172.11407 C 1371.3293 174.26938 1370.7642 174.74021 1368.0105 177.67704 L 1367.9929 177.69926 A 11.382256 11.382256 0 0 0 1370.4419 177.98193 A 11.382256 11.382256 0 0 0 1381.8241 166.59968 A 11.382256 11.382256 0 0 0 1381.5921 164.32023 A 15.557948 15.557948 0 0 0 1376.6813 163.51976 z " /><path
       id="path80"
       style="fill:#4bdf52;fill-opacity:1;stroke:none;stroke-width:0.460455;stroke-linecap:square;stroke-linejoin:round;stroke-miterlimit:4.1;stroke-dasharray:none"
       d="m 1381.5889,164.32789 c 0.1493,0.73743 0.2251,1.48784 0.2263,2.24021 0,2.16654 -0.6054,4.19141 -1.6561,5.91529 l 0.025,0.008 c 1.3565,-1.95289 3.6127,-3.23383 6.1706,-3.23386 0.9651,3.4e-4 1.9211,0.18663 2.8156,0.5487 -1.9053,-2.56043 -4.5519,-4.47297 -7.581,-5.47825 z"
       sodipodi:nodetypes="ccccccc" /><path
       id="path82"
       style="fill:#2eb400;fill-opacity:1;stroke:none;stroke-width:0.460455;stroke-linecap:square;stroke-linejoin:round;stroke-miterlimit:4.1;stroke-dasharray:none"
       d="m 1386.3274,169.23689 a 7.5119057,7.5119057 0 0 0 -4.4009,1.44654 11.850055,11.850055 0 0 1 1.2124,-0.0867 11.850055,11.850055 0 0 1 8.1651,3.27345 15.557948,15.557948 0 0 0 -2.1531,-4.07338 7.5119057,7.5119057 0 0 0 -2.8235,-0.55995 z" /><path
       id="path85"
       style="fill:#1a72ce;fill-opacity:1;stroke:none;stroke-width:0.14038;stroke-linecap:square;stroke-linejoin:round;stroke-miterlimit:4.1;stroke-dasharray:none"
       d="m 1389.123,186.00252 a 12.857734,12.857734 0 0 1 -11.0048,6.2286 12.857734,12.857734 0 0 1 -7.8672,-2.72016 10.516788,10.516788 0 0 0 8.6638,4.58582 10.516788,10.516788 0 0 0 4.3329,-0.93699 15.557948,15.557948 0 0 0 0.2266,-0.11749 10.516788,10.516788 0 0 0 5.6487,-7.03978 z" /><path
       id="path86"
       style="fill:#4bdf52;fill-opacity:1;stroke:none;stroke-width:0.460355;stroke-linecap:square;stroke-linejoin:round;stroke-miterlimit:4.1;stroke-dasharray:none"
       d="m 1362.2384,173.45642 c -0.7041,1.79957 -1.0668,3.71457 -1.0695,5.64698 0,2.06971 0.4165,4.11827 1.2199,6.0257 0.037,-3.32311 1.9199,-6.92559 3.8869,-9.23948 0.1051,-0.34706 -0.4983,-0.01 -0.4706,-0.0884 -0.8927,-0.6387 -2.0826,-1.42352 -3.5667,-2.34478 z"
       sodipodi:nodetypes="cccccc" /><text
       xml:space="preserve"
       style="font-size:8.9982px;font-family:'Times New Roman';-inkscape-font-specification:'Times New Roman, ';text-align:center;letter-spacing:0px;text-anchor:middle;fill:#1a72ce;fill-opacity:1;stroke:none;stroke-width:0.136301;stroke-linecap:square;stroke-linejoin:round;stroke-miterlimit:4.1;stroke-dasharray:none"
       x="1718.2897"
       y="148.99248"
       id="text87"
       transform="scale(0.80882611,1.2363597)"><tspan
         sodipodi:role="line"
         id="tspan87"
         style="font-style:normal;font-variant:normal;font-weight:normal;font-stretch:normal;font-family:Montserrat;-inkscape-font-specification:Montserrat;fill:#1a72ce;fill-opacity:1;stroke:none;stroke-width:0.136301"
         x="1718.2897"
         y="148.99248">CREED</tspan></text></g></svg>
